  0
SECTION
  2
BLOCKS
  0
ENDSEC
  0
SECTION
  2
ENTITIES
  0
LINE
  8
0
 10
703.343
 20
230.01
 11
856.677
 21
230.01
  0
LINE
  8
0
 10
856.677
 20
230.01
 11
856.677
 21
220.01
  0
LINE
  8
0
 10
856.677
 20
220.01
 11
1010.01
 21
220.01
  0
LINE
  8
0
 10
1010.01
 20
220.01
 11
1010.01
 21
230.01
  0
LINE
  8
0
 10
1010.01
 20
230.01
 11
1030.01
 21
230.01
  0
LINE
  8
0
 10
1030.01
 20
230.01
 11
1030.01
 21
260.01
  0
LINE
  8
0
 10
1030.01
 20
260.01
 11
1040.01
 21
260.01
  0
LINE
  8
0
 10
1040.01
 20
260.01
 11
1040.01
 21
374.01
  0
LINE
  8
0
 10
1040.01
 20
374.01
 11
1030.01
 21
374.01
  0
LINE
  8
0
 10
1030.01
 20
374.01
 11
1030.01
 21
488.01
  0
LINE
  8
0
 10
1030.01
 20
488.01
 11
1040.01
 21
488.01
  0
LINE
  8
0
 10
1040.01
 20
488.01
 11
1040.01
 21
602.01
  0
LINE
  8
0
 10
1040.01
 20
602.01
 11
1030.01
 21
602.01
  0
LINE
  8
0
 10
1030.01
 20
602.01
 11
1030.01
 21
716.01
  0
LINE
  8
0
 10
1030.01
 20
716.01
 11
1040.01
 21
716.01
  0
LINE
  8
0
 10
1040.01
 20
716.01
 11
1040.01
 21
830.01
  0
LINE
  8
0
 10
1040.01
 20
830.01
 11
1030.01
 21
830.01
  0
LINE
  8
0
 10
1030.01
 20
830.01
 11
1030.01
 21
860.01
  0
LINE
  8
0
 10
1030.01
 20
860.01
 11
1010.01
 21
860.01
  0
LINE
  8
0
 10
1010.01
 20
860.01
 11
1010.01
 21
870.01
  0
LINE
  8
0
 10
1010.01
 20
870.01
 11
856.677
 21
870.01
  0
LINE
  8
0
 10
856.677
 20
870.01
 11
856.677
 21
860.01
  0
LINE
  8
0
 10
856.677
 20
860.01
 11
703.343
 21
860.01
  0
LINE
  8
0
 10
703.343
 20
860.01
 11
703.343
 21
870.01
  0
LINE
  8
0
 10
703.343
 20
870.01
 11
550.01
 21
870.01
  0
LINE
  8
0
 10
550.01
 20
870.01
 11
550.01
 21
860.01
  0
LINE
  8
0
 10
550.01
 20
860.01
 11
530.01
 21
860.01
  0
LINE
  8
0
 10
530.01
 20
860.01
 11
530.01
 21
830.01
  0
LINE
  8
0
 10
530.01
 20
830.01
 11
520.01
 21
830.01
  0
LINE
  8
0
 10
520.01
 20
830.01
 11
520.01
 21
716.01
  0
LINE
  8
0
 10
520.01
 20
716.01
 11
530.01
 21
716.01
  0
LINE
  8
0
 10
530.01
 20
716.01
 11
530.01
 21
602.01
  0
LINE
  8
0
 10
530.01
 20
602.01
 11
520.01
 21
602.01
  0
LINE
  8
0
 10
520.01
 20
602.01
 11
520.01
 21
488.01
  0
LINE
  8
0
 10
520.01
 20
488.01
 11
530.01
 21
488.01
  0
LINE
  8
0
 10
530.01
 20
488.01
 11
530.01
 21
374.01
  0
LINE
  8
0
 10
530.01
 20
374.01
 11
520.01
 21
374.01
  0
LINE
  8
0
 10
520.01
 20
374.01
 11
520.01
 21
260.01
  0
LINE
  8
0
 10
520.01
 20
260.01
 11
530.01
 21
260.01
  0
LINE
  8
0
 10
530.01
 20
260.01
 11
530.01
 21
230.01
  0
LINE
  8
0
 10
530.01
 20
230.01
 11
550.01
 21
230.01
  0
LINE
  8
0
 10
550.01
 20
230.01
 11
550.01
 21
220.01
  0
LINE
  8
0
 10
550.01
 20
220.01
 11
703.343
 21
220.01
  0
LINE
  8
0
 10
703.343
 20
220.01
 11
703.343
 21
230.01
  0
LINE
  8
0
 10
183.333
 20
230.01
 11
336.667
 21
230.01
  0
LINE
  8
0
 10
336.667
 20
230.01
 11
336.667
 21
220.01
  0
LINE
  8
0
 10
336.667
 20
220.01
 11
490
 21
220.01
  0
LINE
  8
0
 10
490
 20
220.01
 11
490
 21
230.01
  0
LINE
  8
0
 10
490
 20
230.01
 11
510
 21
230.01
  0
LINE
  8
0
 10
510
 20
230.01
 11
510
 21
260.01
  0
LINE
  8
0
 10
510
 20
260.01
 11
520
 21
260.01
  0
LINE
  8
0
 10
520
 20
260.01
 11
520
 21
374.01
  0
LINE
  8
0
 10
520
 20
374.01
 11
510
 21
374.01
  0
LINE
  8
0
 10
510
 20
374.01
 11
510
 21
488.01
  0
LINE
  8
0
 10
510
 20
488.01
 11
520
 21
488.01
  0
LINE
  8
0
 10
520
 20
488.01
 11
520
 21
602.01
  0
LINE
  8
0
 10
520
 20
602.01
 11
510
 21
602.01
  0
LINE
  8
0
 10
510
 20
602.01
 11
510
 21
716.01
  0
LINE
  8
0
 10
510
 20
716.01
 11
520
 21
716.01
  0
LINE
  8
0
 10
520
 20
716.01
 11
520
 21
830.01
  0
LINE
  8
0
 10
520
 20
830.01
 11
510
 21
830.01
  0
LINE
  8
0
 10
510
 20
830.01
 11
510
 21
860.01
  0
LINE
  8
0
 10
510
 20
860.01
 11
490
 21
860.01
  0
LINE
  8
0
 10
490
 20
860.01
 11
490
 21
870.01
  0
LINE
  8
0
 10
490
 20
870.01
 11
336.667
 21
870.01
  0
LINE
  8
0
 10
336.667
 20
870.01
 11
336.667
 21
860.01
  0
LINE
  8
0
 10
336.667
 20
860.01
 11
183.333
 21
860.01
  0
LINE
  8
0
 10
183.333
 20
860.01
 11
183.333
 21
870.01
  0
LINE
  8
0
 10
183.333
 20
870.01
 11
30
 21
870.01
  0
LINE
  8
0
 10
30
 20
870.01
 11
30
 21
860.01
  0
LINE
  8
0
 10
30
 20
860.01
 11
9.99998
 21
860.01
  0
LINE
  8
0
 10
9.99998
 20
860.01
 11
9.99998
 21
830.01
  0
LINE
  8
0
 10
9.99998
 20
830.01
 11
0
 21
830.01
  0
LINE
  8
0
 10
0
 20
830.01
 11
0
 21
716.01
  0
LINE
  8
0
 10
0
 20
716.01
 11
9.99998
 21
716.01
  0
LINE
  8
0
 10
9.99998
 20
716.01
 11
9.99998
 21
602.01
  0
LINE
  8
0
 10
9.99998
 20
602.01
 11
0
 21
602.01
  0
LINE
  8
0
 10
0
 20
602.01
 11
0
 21
488.01
  0
LINE
  8
0
 10
0
 20
488.01
 11
10
 21
488.01
  0
LINE
  8
0
 10
10
 20
488.01
 11
10
 21
374.01
  0
LINE
  8
0
 10
10
 20
374.01
 11
0
 21
374.01
  0
LINE
  8
0
 10
0
 20
374.01
 11
0
 21
260.01
  0
LINE
  8
0
 10
0
 20
260.01
 11
10
 21
260.01
  0
LINE
  8
0
 10
10
 20
260.01
 11
10
 21
230.01
  0
LINE
  8
0
 10
10
 20
230.01
 11
30
 21
230.01
  0
LINE
  8
0
 10
30
 20
230.01
 11
30
 21
220.01
  0
LINE
  8
0
 10
30
 20
220.01
 11
183.333
 21
220.01
  0
LINE
  8
0
 10
183.333
 20
220.01
 11
183.333
 21
230.01
  0
LINE
  8
0
 10
1080.02
 20
10
 11
1194.02
 21
10
  0
LINE
  8
0
 10
1194.02
 20
10
 11
1194.02
 21
0
  0
LINE
  8
0
 10
1194.02
 20
0
 11
1308.02
 21
0
  0
LINE
  8
0
 10
1308.02
 20
0
 11
1308.02
 21
10
  0
LINE
  8
0
 10
1308.02
 20
10
 11
1422.02
 21
10
  0
LINE
  8
0
 10
1422.02
 20
10
 11
1422.02
 21
0
  0
LINE
  8
0
 10
1422.02
 20
0
 11
1536.02
 21
0
  0
LINE
  8
0
 10
1536.02
 20
0
 11
1536.02
 21
10
  0
LINE
  8
0
 10
1536.02
 20
10
 11
1650.02
 21
10
  0
LINE
  8
0
 10
1650.02
 20
10
 11
1650.02
 21
0
  0
LINE
  8
0
 10
1650.02
 20
0
 11
1680.02
 21
0
  0
LINE
  8
0
 10
1680.02
 20
0
 11
1680.02
 21
73.3333
  0
LINE
  8
0
 10
1680.02
 20
73.3333
 11
1690.02
 21
73.3333
  0
LINE
  8
0
 10
1690.02
 20
73.3333
 11
1690.02
 21
146.667
  0
LINE
  8
0
 10
1690.02
 20
146.667
 11
1680.02
 21
146.667
  0
LINE
  8
0
 10
1680.02
 20
146.667
 11
1680.02
 21
220
  0
LINE
  8
0
 10
1680.02
 20
220
 11
1650.02
 21
220
  0
LINE
  8
0
 10
1650.02
 20
220
 11
1650.02
 21
210
  0
LINE
  8
0
 10
1650.02
 20
210
 11
1536.02
 21
210
  0
LINE
  8
0
 10
1536.02
 20
210
 11
1536.02
 21
220
  0
LINE
  8
0
 10
1536.02
 20
220
 11
1422.02
 21
220
  0
LINE
  8
0
 10
1422.02
 20
220
 11
1422.02
 21
210
  0
LINE
  8
0
 10
1422.02
 20
210
 11
1308.02
 21
210
  0
LINE
  8
0
 10
1308.02
 20
210
 11
1308.02
 21
220
  0
LINE
  8
0
 10
1308.02
 20
220
 11
1194.02
 21
220
  0
LINE
  8
0
 10
1194.02
 20
220
 11
1194.02
 21
210
  0
LINE
  8
0
 10
1194.02
 20
210
 11
1080.02
 21
210
  0
LINE
  8
0
 10
1080.02
 20
210
 11
1080.02
 21
220
  0
LINE
  8
0
 10
1080.02
 20
220
 11
1050.02
 21
220
  0
LINE
  8
0
 10
1050.02
 20
220
 11
1050.02
 21
146.667
  0
LINE
  8
0
 10
1050.02
 20
146.667
 11
1040.02
 21
146.667
  0
LINE
  8
0
 10
1040.02
 20
146.667
 11
1040.02
 21
73.3333
  0
LINE
  8
0
 10
1040.02
 20
73.3333
 11
1050.02
 21
73.3333
  0
LINE
  8
0
 10
1050.02
 20
73.3333
 11
1050.02
 21
0
  0
LINE
  8
0
 10
1050.02
 20
0
 11
1080.02
 21
0
  0
LINE
  8
0
 10
1080.02
 20
0
 11
1080.02
 21
10
  0
LINE
  8
0
 10
1730.03
 20
10
 11
1844.03
 21
10
  0
LINE
  8
0
 10
1844.03
 20
10
 11
1844.03
 21
0
  0
LINE
  8
0
 10
1844.03
 20
0
 11
1958.03
 21
0
  0
LINE
  8
0
 10
1958.03
 20
0
 11
1958.03
 21
10
  0
LINE
  8
0
 10
1958.03
 20
10
 11
2072.03
 21
10
  0
LINE
  8
0
 10
2072.03
 20
10
 11
2072.03
 21
0
  0
LINE
  8
0
 10
2072.03
 20
0
 11
2186.03
 21
0
  0
LINE
  8
0
 10
2186.03
 20
0
 11
2186.03
 21
10
  0
LINE
  8
0
 10
2186.03
 20
10
 11
2300.03
 21
10
  0
LINE
  8
0
 10
2300.03
 20
10
 11
2300.03
 21
0
  0
LINE
  8
0
 10
2300.03
 20
0
 11
2330.03
 21
0
  0
LINE
  8
0
 10
2330.03
 20
0
 11
2330.03
 21
73.3333
  0
LINE
  8
0
 10
2330.03
 20
73.3333
 11
2340.03
 21
73.3333
  0
LINE
  8
0
 10
2340.03
 20
73.3333
 11
2340.03
 21
146.667
  0
LINE
  8
0
 10
2340.03
 20
146.667
 11
2330.03
 21
146.667
  0
LINE
  8
0
 10
2330.03
 20
146.667
 11
2330.03
 21
220
  0
LINE
  8
0
 10
2330.03
 20
220
 11
2300.03
 21
220
  0
LINE
  8
0
 10
2300.03
 20
220
 11
2300.03
 21
210
  0
LINE
  8
0
 10
2300.03
 20
210
 11
2186.03
 21
210
  0
LINE
  8
0
 10
2186.03
 20
210
 11
2186.03
 21
220
  0
LINE
  8
0
 10
2186.03
 20
220
 11
2072.03
 21
220
  0
LINE
  8
0
 10
2072.03
 20
220
 11
2072.03
 21
210
  0
LINE
  8
0
 10
2072.03
 20
210
 11
1958.03
 21
210
  0
LINE
  8
0
 10
1958.03
 20
210
 11
1958.03
 21
220
  0
LINE
  8
0
 10
1958.03
 20
220
 11
1844.03
 21
220
  0
LINE
  8
0
 10
1844.03
 20
220
 11
1844.03
 21
210
  0
LINE
  8
0
 10
1844.03
 20
210
 11
1730.03
 21
210
  0
LINE
  8
0
 10
1730.03
 20
210
 11
1730.03
 21
220
  0
LINE
  8
0
 10
1730.03
 20
220
 11
1700.03
 21
220
  0
LINE
  8
0
 10
1700.03
 20
220
 11
1700.03
 21
146.667
  0
LINE
  8
0
 10
1700.03
 20
146.667
 11
1690.03
 21
146.667
  0
LINE
  8
0
 10
1690.03
 20
146.667
 11
1690.03
 21
73.3333
  0
LINE
  8
0
 10
1690.03
 20
73.3333
 11
1700.03
 21
73.3333
  0
LINE
  8
0
 10
1700.03
 20
73.3333
 11
1700.03
 21
0
  0
LINE
  8
0
 10
1700.03
 20
0
 11
1730.03
 21
0
  0
LINE
  8
0
 10
1730.03
 20
0
 11
1730.03
 21
10
  0
LINE
  8
0
 10
30
 20
10
 11
183.333
 21
10
  0
LINE
  8
0
 10
183.333
 20
10
 11
183.333
 21
0
  0
LINE
  8
0
 10
183.333
 20
0
 11
336.667
 21
0
  0
LINE
  8
0
 10
336.667
 20
0
 11
336.667
 21
10
  0
LINE
  8
0
 10
336.667
 20
10
 11
490
 21
10
  0
LINE
  8
0
 10
490
 20
10
 11
490
 21
0
  0
LINE
  8
0
 10
490
 20
0
 11
520
 21
0
  0
LINE
  8
0
 10
520
 20
0
 11
520
 21
73.3333
  0
LINE
  8
0
 10
520
 20
73.3333
 11
510
 21
73.3333
  0
LINE
  8
0
 10
510
 20
73.3333
 11
510
 21
146.667
  0
LINE
  8
0
 10
510
 20
146.667
 11
520
 21
146.667
  0
LINE
  8
0
 10
520
 20
146.667
 11
520
 21
220
  0
LINE
  8
0
 10
520
 20
220
 11
490
 21
220
  0
LINE
  8
0
 10
490
 20
220
 11
490
 21
210
  0
LINE
  8
0
 10
490
 20
210
 11
336.667
 21
210
  0
LINE
  8
0
 10
336.667
 20
210
 11
336.667
 21
220
  0
LINE
  8
0
 10
336.667
 20
220
 11
183.333
 21
220
  0
LINE
  8
0
 10
183.333
 20
220
 11
183.333
 21
210
  0
LINE
  8
0
 10
183.333
 20
210
 11
30
 21
210
  0
LINE
  8
0
 10
30
 20
210
 11
30
 21
220
  0
LINE
  8
0
 10
30
 20
220
 11
0
 21
220
  0
LINE
  8
0
 10
0
 20
220
 11
0
 21
146.667
  0
LINE
  8
0
 10
0
 20
146.667
 11
9.99998
 21
146.667
  0
LINE
  8
0
 10
9.99998
 20
146.667
 11
10
 21
73.3333
  0
LINE
  8
0
 10
10
 20
73.3333
 11
0
 21
73.3333
  0
LINE
  8
0
 10
0
 20
73.3333
 11
0
 21
0
  0
LINE
  8
0
 10
0
 20
0
 11
30
 21
0
  0
LINE
  8
0
 10
30
 20
0
 11
30
 21
10
  0
LINE
  8
0
 10
198.432
 20
170.082
 11
195.365
 21
170.734
  0
LINE
  8
0
 10
195.365
 20
170.734
 11
192.5
 21
172.01
  0
LINE
  8
0
 10
192.5
 20
172.01
 11
189.963
 21
173.853
  0
LINE
  8
0
 10
189.963
 20
173.853
 11
187.865
 21
176.183
  0
LINE
  8
0
 10
187.865
 20
176.183
 11
186.297
 21
178.899
  0
LINE
  8
0
 10
186.297
 20
178.899
 11
185.328
 21
181.881
  0
LINE
  8
0
 10
185.328
 20
181.881
 11
185
 21
185
  0
LINE
  8
0
 10
185
 20
185
 11
185.328
 21
188.119
  0
LINE
  8
0
 10
185.328
 20
188.119
 11
186.297
 21
191.101
  0
LINE
  8
0
 10
186.297
 20
191.101
 11
187.865
 21
193.817
  0
LINE
  8
0
 10
187.865
 20
193.817
 11
189.963
 21
196.147
  0
LINE
  8
0
 10
189.963
 20
196.147
 11
192.5
 21
197.99
  0
LINE
  8
0
 10
192.5
 20
197.99
 11
195.365
 21
199.266
  0
LINE
  8
0
 10
195.365
 20
199.266
 11
198.432
 21
199.918
  0
LINE
  8
0
 10
198.432
 20
199.918
 11
321.568
 21
199.918
  0
LINE
  8
0
 10
321.568
 20
199.918
 11
324.635
 21
199.266
  0
LINE
  8
0
 10
324.635
 20
199.266
 11
327.5
 21
197.99
  0
LINE
  8
0
 10
327.5
 20
197.99
 11
330.037
 21
196.147
  0
LINE
  8
0
 10
330.037
 20
196.147
 11
332.135
 21
193.817
  0
LINE
  8
0
 10
332.135
 20
193.817
 11
333.703
 21
191.101
  0
LINE
  8
0
 10
333.703
 20
191.101
 11
334.672
 21
188.119
  0
LINE
  8
0
 10
334.672
 20
188.119
 11
335
 21
185
  0
LINE
  8
0
 10
335
 20
185
 11
334.672
 21
181.881
  0
LINE
  8
0
 10
334.672
 20
181.881
 11
333.703
 21
178.899
  0
LINE
  8
0
 10
333.703
 20
178.899
 11
332.135
 21
176.183
  0
LINE
  8
0
 10
332.135
 20
176.183
 11
330.037
 21
173.853
  0
LINE
  8
0
 10
330.037
 20
173.853
 11
327.5
 21
172.01
  0
LINE
  8
0
 10
327.5
 20
172.01
 11
324.635
 21
170.734
  0
LINE
  8
0
 10
324.635
 20
170.734
 11
321.568
 21
170.082
  0
LINE
  8
0
 10
321.568
 20
170.082
 11
198.432
 21
170.082
  0
LINE
  8
0
 10
550.01
 20
10
 11
703.343
 21
10
  0
LINE
  8
0
 10
703.343
 20
10
 11
703.343
 21
0
  0
LINE
  8
0
 10
703.343
 20
0
 11
856.677
 21
0
  0
LINE
  8
0
 10
856.677
 20
0
 11
856.677
 21
10
  0
LINE
  8
0
 10
856.677
 20
10
 11
1010.01
 21
10
  0
LINE
  8
0
 10
1010.01
 20
10
 11
1010.01
 21
0
  0
LINE
  8
0
 10
1010.01
 20
0
 11
1040.01
 21
0
  0
LINE
  8
0
 10
1040.01
 20
0
 11
1040.01
 21
73.3333
  0
LINE
  8
0
 10
1040.01
 20
73.3333
 11
1030.01
 21
73.3333
  0
LINE
  8
0
 10
1030.01
 20
73.3333
 11
1030.01
 21
146.667
  0
LINE
  8
0
 10
1030.01
 20
146.667
 11
1040.01
 21
146.667
  0
LINE
  8
0
 10
1040.01
 20
146.667
 11
1040.01
 21
220
  0
LINE
  8
0
 10
1040.01
 20
220
 11
1010.01
 21
220
  0
LINE
  8
0
 10
1010.01
 20
220
 11
1010.01
 21
210
  0
LINE
  8
0
 10
1010.01
 20
210
 11
856.677
 21
210
  0
LINE
  8
0
 10
856.677
 20
210
 11
856.677
 21
220
  0
LINE
  8
0
 10
856.677
 20
220
 11
703.343
 21
220
  0
LINE
  8
0
 10
703.343
 20
220
 11
703.343
 21
210
  0
LINE
  8
0
 10
703.343
 20
210
 11
550.01
 21
210
  0
LINE
  8
0
 10
550.01
 20
210
 11
550.01
 21
220
  0
LINE
  8
0
 10
550.01
 20
220
 11
520.01
 21
220
  0
LINE
  8
0
 10
520.01
 20
220
 11
520.01
 21
146.667
  0
LINE
  8
0
 10
520.01
 20
146.667
 11
530.01
 21
146.667
  0
LINE
  8
0
 10
530.01
 20
146.667
 11
530.01
 21
73.3333
  0
LINE
  8
0
 10
530.01
 20
73.3333
 11
520.01
 21
73.3333
  0
LINE
  8
0
 10
520.01
 20
73.3333
 11
520.01
 21
0
  0
LINE
  8
0
 10
520.01
 20
0
 11
550.01
 21
0
  0
LINE
  8
0
 10
550.01
 20
0
 11
550.01
 21
10
  0
LINE
  8
0
 10
718.442
 20
170.082
 11
715.375
 21
170.734
  0
LINE
  8
0
 10
715.375
 20
170.734
 11
712.51
 21
172.01
  0
LINE
  8
0
 10
712.51
 20
172.01
 11
709.973
 21
173.853
  0
LINE
  8
0
 10
709.973
 20
173.853
 11
707.875
 21
176.183
  0
LINE
  8
0
 10
707.875
 20
176.183
 11
706.307
 21
178.899
  0
LINE
  8
0
 10
706.307
 20
178.899
 11
705.338
 21
181.881
  0
LINE
  8
0
 10
705.338
 20
181.881
 11
705.01
 21
185
  0
LINE
  8
0
 10
705.01
 20
185
 11
705.338
 21
188.119
  0
LINE
  8
0
 10
705.338
 20
188.119
 11
706.307
 21
191.101
  0
LINE
  8
0
 10
706.307
 20
191.101
 11
707.875
 21
193.817
  0
LINE
  8
0
 10
707.875
 20
193.817
 11
709.973
 21
196.147
  0
LINE
  8
0
 10
709.973
 20
196.147
 11
712.51
 21
197.99
  0
LINE
  8
0
 10
712.51
 20
197.99
 11
715.375
 21
199.266
  0
LINE
  8
0
 10
715.375
 20
199.266
 11
718.442
 21
199.918
  0
LINE
  8
0
 10
718.442
 20
199.918
 11
841.578
 21
199.918
  0
LINE
  8
0
 10
841.578
 20
199.918
 11
844.645
 21
199.266
  0
LINE
  8
0
 10
844.645
 20
199.266
 11
847.51
 21
197.99
  0
LINE
  8
0
 10
847.51
 20
197.99
 11
850.047
 21
196.147
  0
LINE
  8
0
 10
850.047
 20
196.147
 11
852.145
 21
193.817
  0
LINE
  8
0
 10
852.145
 20
193.817
 11
853.713
 21
191.101
  0
LINE
  8
0
 10
853.713
 20
191.101
 11
854.682
 21
188.119
  0
LINE
  8
0
 10
854.682
 20
188.119
 11
855.01
 21
185
  0
LINE
  8
0
 10
855.01
 20
185
 11
854.682
 21
181.881
  0
LINE
  8
0
 10
854.682
 20
181.881
 11
853.713
 21
178.899
  0
LINE
  8
0
 10
853.713
 20
178.899
 11
852.145
 21
176.183
  0
LINE
  8
0
 10
852.145
 20
176.183
 11
850.047
 21
173.853
  0
LINE
  8
0
 10
850.047
 20
173.853
 11
847.51
 21
172.01
  0
LINE
  8
0
 10
847.51
 20
172.01
 11
844.645
 21
170.734
  0
LINE
  8
0
 10
844.645
 20
170.734
 11
841.578
 21
170.082
  0
LINE
  8
0
 10
841.578
 20
170.082
 11
718.442
 21
170.082
  0
ENDSEC
  0
SECTION
  2
OBJECTS
  0
DICTIONARY
  0
ENDSEC
  0
EOF
